<svg width="291" height="112" viewBox="0 0 291 112" fill="none" xmlns="http://www.w3.org/2000/svg">
<path d="M46.6667 21.7333C34.5333 44.8 24 64.8 9.2 92.8C4.13333 102.4 0 110.667 0 111.2C0 111.6 7.73333 112 17.2 112H34.4L41.3333 98.2667C54.1333 73.2 64.4 54 65.4667 52.6667C66.1333 52 66.6667 64.9333 66.6667 81.7333V112H83.7333H100.667L112 90.2667L123.333 68.6667L123.733 90.2667L124 112H143.867H163.6L177.2 86.2667C184.8 72.2667 191.467 60.1333 192.133 59.4667C192.8 58.6667 193.333 68.8 193.333 85.0667V112H213.067H232.667L242.533 92.9333C247.867 82.5333 260.933 57.7333 271.467 37.7333C282 17.8667 290.667 1.2 290.667 0.799995C290.667 0.399994 282.933 -7.62939e-06 273.467 -7.62939e-06H256.4L241.333 28.9333C233.067 44.9333 225.867 58.5333 225.2 59.2C224.533 60 224 47.7333 224 30.2667V-7.62939e-06H207.067H190L174 30.4L158 60.6667L157.6 30.2667L157.333 -7.62939e-06H142.133H126.933L113.333 25.6C105.867 39.7333 99.2 51.8667 98.5333 52.5333C97.8667 53.3333 97.3333 42.9333 97.3333 26.9333V-7.62939e-06H77.7333H58L46.6667 21.7333Z" fill="black"/>
</svg>
