<svg width="1366" height="768" viewBox="0 0 1366 768" fill="none" xmlns="http://www.w3.org/2000/svg">
<rect width="1365.33" height="768" fill="transparent"/>
<path d="M954.667 349.733C942.533 372.8 932 392.8 917.2 420.8C912.133 430.4 908 438.667 908 439.2C908 439.6 915.733 440 925.2 440H942.4L949.333 426.267C962.133 401.2 972.4 382 973.467 380.667C974.133 380 974.667 392.933 974.667 409.733V440H991.733H1008.67L1020 418.267L1031.33 396.667L1031.73 418.267L1032 440H1051.87H1071.6L1085.2 414.267C1092.8 400.267 1099.47 388.133 1100.13 387.467C1100.8 386.667 1101.33 396.8 1101.33 413.067V440H1121.07H1140.67L1150.53 420.933C1155.87 410.533 1168.93 385.733 1179.47 365.733C1190 345.867 1198.67 329.2 1198.67 328.8C1198.67 328.4 1190.93 328 1181.47 328H1164.4L1149.33 356.933C1141.07 372.933 1133.87 386.533 1133.2 387.2C1132.53 388 1132 375.733 1132 358.267V328H1115.07H1098L1082 358.4L1066 388.667L1065.6 358.267L1065.33 328H1050.13H1034.93L1021.33 353.6C1013.87 367.733 1007.2 379.867 1006.53 380.533C1005.87 381.333 1005.33 370.933 1005.33 354.933V328H985.733H966L954.667 349.733Z" fill="black"/>
<path d="M202.933 354.267C200.4 358.133 170.933 407.6 168.133 412.933C165.867 417.333 166.133 417.467 172.933 417.067C178.8 416.667 179.333 416.267 182.667 410.667L186.133 404.667L200.267 404.267L214.4 403.867L215.333 410.667L216.267 417.333H222.133C227.867 417.333 228 417.2 228 412.933C228 406.133 224 354.133 223.333 352.267C222.933 351.2 219.867 350.667 214.133 350.667C206.267 350.667 205.333 350.933 202.933 354.267ZM214.133 394.4C213.867 394.533 208.8 394.667 202.933 394.4L192.267 394L201.733 378L211.333 362L212.933 378C213.733 386.8 214.267 394.133 214.133 394.4Z" fill="black"/>
<path d="M253.867 354.267C253.467 356.4 252.533 359.733 251.867 362C246.667 379.867 242.667 398.533 242.667 404.4C242.667 415.333 244.667 416.533 263.867 417.067C277.867 417.467 279.867 417.2 285.333 414.4C293.333 410.267 296 404.667 303.333 375.867C306.667 362.933 309.333 351.867 309.333 351.467C309.333 349.867 297.2 350.667 296.8 352.267C296.4 353.2 293.733 363.6 290.8 375.333C284 401.467 283.333 403.333 279.2 405.2C275.467 406.8 260.133 407.2 257.867 405.6C254.8 403.467 255.2 399.6 260.8 377.867C264 365.467 266.667 354.267 266.667 352.933C266.667 351.067 265.467 350.667 260.667 350.667C255.2 350.667 254.667 350.933 253.867 354.267Z" fill="black"/>
<path d="M318.133 354.267C317.6 356.4 316.933 359.067 316.533 360.267C315.867 362.4 316.933 362.667 325.333 362.667H334.667L333.867 366.267C333.333 368.4 330.4 380.133 327.2 392.667C324 405.067 321.333 415.867 321.333 416.4C321.333 416.933 324.133 417.333 327.733 417.067L334 416.667L339.067 396.667C342 385.6 345.2 373.467 346.267 369.6L348.133 362.667H357.867H367.467L368.8 357.333C369.6 354.4 370 351.733 369.6 351.333C369.2 350.933 357.6 350.667 343.867 350.667H318.933L318.133 354.267Z" fill="black"/>
<path d="M388.667 352.667C379.733 356 374.533 364.667 368.8 385.467C361.733 411.733 365.067 417.333 388.267 417.333C407.2 417.333 414.533 413.6 420.4 400.933C425.067 390.8 429.6 371.867 429.067 363.867C428.4 353.467 425.067 351.467 407.6 351.067C398.133 350.8 392.4 351.333 388.667 352.667ZM413.467 362.667C416.8 364.533 416.8 369.333 413.333 382.533C408 403.467 405.067 406.667 390.8 406.667C382.667 406.667 378.667 404.667 378.667 400.533C378.667 396.667 383.733 377.6 386.933 368.933C387.733 366.933 390 364.4 391.867 363.333C395.867 361.067 409.733 360.667 413.467 362.667Z" fill="black"/>
<path d="M446 352.267C444.4 357.067 429.333 415.333 429.333 416.533C429.333 417.067 432.133 417.333 435.6 417.067L441.867 416.667L448 391.733C454 367.333 455.867 361.6 456.133 368.133C456.133 369.867 457.467 381.467 459.067 394L462 416.667L467.6 417.067C473.867 417.467 472.133 419.733 496 381.6C502 371.867 507.067 364 507.333 364C507.6 364 506 370.8 503.867 378.933C501.733 387.2 498.667 398.4 497.333 403.867C493.733 417.467 493.6 417.333 500.667 417.333C504 417.333 506.667 417.067 506.667 416.8C506.667 416.4 509.067 406.667 512.133 395.067C521.733 357.467 522.667 354 522.667 352.267C522.667 350.933 520.133 350.667 512.4 350.933L502.133 351.333L487.6 375.067C479.6 388.133 472.8 398.533 472.4 398.267C472.133 397.867 466.933 355.2 466.667 350.933C466.667 350.8 462.133 350.667 456.667 350.667C449.733 350.667 446.4 351.2 446 352.267Z" fill="black"/>
<path d="M546.667 353.067C541.867 354.933 539.867 356.8 536.267 362.667C528.667 375.333 522.133 401.6 524.8 408.933C526.8 414.8 533.467 417.333 546.667 417.333C571.6 417.333 577.6 411.867 585.333 381.467C590.133 362.4 588.533 354.667 578.933 352C571.2 349.867 553.6 350.533 546.667 353.067ZM572.133 362.667C575.467 364.533 575.467 369.333 571.867 382.933C566.8 403.2 563.467 406.667 549.333 406.667C541.333 406.667 537.333 404.667 537.333 400.533C537.333 397.467 543.867 372.533 545.6 368.667C546.533 366.667 548.667 364.267 550.533 363.333C554.667 361.067 568.4 360.8 572.133 362.667Z" fill="black"/>
<path d="M598.8 353.6C595.2 363.2 594.933 362.667 605.2 362.667C610.4 362.667 614.667 362.933 614.667 363.2C614.667 364.4 609.6 384.933 605.467 400.267C603.2 408.8 601.333 416.133 601.333 416.533C601.333 416.933 604.267 417.333 607.867 417.333H614.4L616 410.267C616.933 406.533 619.6 395.867 622 386.667C624.4 377.467 626.667 368.4 627.2 366.267C628 362.8 628.267 362.667 637.867 362.667C647.467 362.667 647.733 362.533 648.533 358.933C649.067 356.933 649.733 354.267 650.133 352.933C650.8 350.8 649.067 350.667 625.333 350.667C600.267 350.667 599.867 350.667 598.8 353.6Z" fill="black"/>
<path d="M669.6 352.533C659.867 356 654 366 648.4 388.4C642.267 413.2 645.867 417.733 670.667 417.067C693.733 416.4 699.067 411.6 706.133 384.667C712.133 361.6 710.933 355.067 700.133 352C693.6 350.267 675.067 350.533 669.6 352.533ZM694.4 362.933C696.8 365.333 696.267 372.8 692.8 385.733C687.733 404.267 685.2 406.667 670.667 406.667C657.2 406.667 656.8 404.933 663.6 380.667C666.933 368.533 669.2 364.533 674 362.533C678.133 360.933 692.533 361.067 694.4 362.933Z" fill="black"/>
<path d="M724.8 357.6C723.867 361.467 721.733 369.467 720.133 375.333C718.667 381.2 715.6 392.8 713.333 400.933C711.2 409.2 709.333 416.267 709.333 416.667C709.333 417.2 712.133 417.333 715.6 417.067L721.733 416.667L724.667 406L727.467 395.333H739.067C746.4 395.333 751.2 395.867 752.133 396.933C753.733 398.533 753.2 402.533 749.867 414.267C749.067 417.2 749.467 417.333 755.733 417.333H762.4L764.8 407.333C767.333 396.533 766.267 390.667 761.733 390.667C760.267 390.533 761.333 389.467 764.4 387.867C770.533 384.667 774.533 376.8 775.6 366.133C776.933 352.667 773.067 350.667 745.067 350.667H726.8L724.8 357.6ZM760.8 364.267C762.8 366.267 762.8 367.2 761.333 372.667C758.667 382 755.2 384 741.867 384C735.733 384 730.667 383.6 730.667 383.2C730.667 382.667 731.2 380.133 732 377.467C732.667 374.8 734 370 734.8 366.933L736.133 361.067L747.333 361.6C755.6 361.867 759.2 362.533 760.8 364.267Z" fill="black"/>
<path d="M792 351.333C792 351.6 788.4 365.467 784 382.267C779.6 398.933 776 413.6 776 414.933C776 417.2 777.733 417.333 797.867 417.333C810 417.333 820.133 416.933 820.4 416.267C820.8 415.733 821.467 413.333 822 410.933L822.933 406.667H806.667H790.4L791.333 402.267C791.867 400 792.933 395.733 793.6 392.933L795.067 388H810.933C822.667 388 826.667 387.6 826.667 386.267C826.667 385.467 827.067 383.333 827.467 381.6C828.267 378.667 828.267 378.667 812.8 378.667H797.333L798.133 374.933C798.667 372.933 799.733 369.2 800.667 366.667L802.267 362L818.267 361.6C834 361.2 834.4 361.2 835.2 358.133C835.6 356.4 836.4 354 836.8 352.8C837.467 350.933 835.067 350.667 814.8 350.667C802.267 350.667 792 350.933 792 351.333Z" fill="black"/>
<path d="M858 352.267C850.133 355.067 846.4 360.4 844 371.733C841.2 384.4 844.4 386.8 866 388.933L876.667 390L877.067 394.8C877.333 398 876.533 400.533 874.667 403.067C872 406.4 871.067 406.667 861.333 406.667C849.733 406.667 847.333 405.2 848.8 399.333C849.6 395.867 849.6 395.867 843.2 396.267C836.933 396.667 836.667 396.8 835.6 401.733C833.867 409.067 836.4 414.267 842.533 416C848.8 417.733 868.667 417.733 875.067 415.867C884.133 413.467 890.667 402.533 890.667 390C890.667 381.733 888 380 873.067 378.667C866.267 378.133 859.6 377.2 858.4 376.667C855.333 375.467 855.333 371.067 858.533 365.733C860.8 362.133 862.133 361.467 868.4 360.667C879.467 359.2 884 361.333 884 367.6C884 370.267 884.667 370.667 889.867 370.667C894.8 370.667 895.867 370.133 896.533 367.6C898 362.267 897.333 357.733 894.8 354.533C892.4 351.6 891.2 351.333 877.067 351.067C868.533 350.933 860.267 351.333 858 352.267Z" fill="black"/>
</svg>
